<svg width="78" height="35" viewBox="0 0 78 35" fill="none" xmlns="http://www.w3.org/2000/svg">
<path d="M31.3126 28.413C30.8689 28.803 30.4311 29.2015 29.9962 29.6044C26.3664 32.9648 21.2815 34.9246 16.2977 34.4228C7.67405 33.5526 0.904297 26.102 0.904297 17.506C0.904297 16.9597 0.930307 16.415 0.985216 15.873H7.81132C7.71306 16.4092 7.66249 16.9554 7.66249 17.506C7.66249 23.1846 12.3182 27.8037 18.0418 27.8037C21.4982 27.8037 24.6324 25.6719 27.1799 23.51L31.3126 28.413Z" fill="#05A52E"/>
<path d="M42.3147 19.3465C39.0895 21.9672 35.8108 24.5148 32.6665 27.2257L28.5469 22.3356C28.687 22.2166 28.8431 22.0847 29.0122 21.9414C30.9109 20.3386 34.5985 17.2505 38.0939 14.3374L42.3147 19.3465Z" fill="#031541"/>
<path d="M77.4999 17.5058C77.4999 17.9703 77.4811 18.4348 77.4436 18.8964C76.9219 25.2617 72.6766 30.9346 66.703 33.303C59.5908 36.1229 53.2531 33.4205 47.6726 28.8831C45.4791 27.0997 42.8449 25.0825 40.5632 23.2346L42.855 21.3752L43.3911 20.9408L46.0166 18.8104C48.0078 20.4935 52.652 24.4016 54.5969 25.9011C56.6401 27.4781 59.2411 28.1175 61.7944 27.7018C66.7189 26.9018 70.7403 22.5077 70.7403 17.5058C70.7403 14.0063 68.6812 10.6731 65.7768 8.76495C63.9879 7.58937 62.1643 7.21089 60.3754 7.36286C57.3048 7.62521 54.3368 9.45453 51.8139 11.5233C51.0668 12.1354 50.3212 12.7476 49.5756 13.3626L49.1407 12.8465L45.3404 8.33629C45.3982 8.28755 45.4545 8.24311 45.508 8.19867C45.5166 8.1915 45.5239 8.18576 45.5325 8.17859C49.2288 5.17084 52.7358 1.54518 57.6632 0.722278C64.3318 -0.39022 71.194 2.7523 74.8166 8.3793C76.565 11.096 77.4999 14.2844 77.4999 17.5058Z" fill="#05A52E"/>
<path d="M43.9392 9.48682L39.4783 13.187L43.7221 18.2234L48.1831 14.5232L43.9392 9.48682Z" fill="#031541"/>
</svg>
